<?xml version="1.0" encoding="utf-8" standalone="no"?>
<!DOCTYPE svg PUBLIC "-//W3C//DTD SVG 1.1//EN"
  "http://www.w3.org/Graphics/SVG/1.1/DTD/svg11.dtd">
<!-- Created with matplotlib (https://matplotlib.org/) -->
<svg height="277.314375pt" version="1.1" viewBox="0 0 376.936302 277.314375" width="376.936302pt" xmlns="http://www.w3.org/2000/svg" xmlns:xlink="http://www.w3.org/1999/xlink">
 <defs>
  <style type="text/css">
*{stroke-linecap:butt;stroke-linejoin:round;}
  </style>
 </defs>
 <g id="figure_1">
  <g id="patch_1">
   <path d="M 0 277.314375 
L 376.936302 277.314375 
L 376.936302 0 
L 0 0 
z
" style="fill:none;"/>
  </g>
  <g id="axes_1">
   <g id="patch_2">
    <path d="M 34.240625 239.758125 
L 369.040625 239.758125 
L 369.040625 22.318125 
L 34.240625 22.318125 
z
" style="fill:#ffffff;"/>
   </g>
   <g id="matplotlib.axis_1">
    <g id="xtick_1">
     <g id="line2d_1">
      <defs>
       <path d="M 0 0 
L 0 3.5 
" id="m1b3be06d51" style="stroke:#000000;stroke-width:0.8;"/>
      </defs>
      <g>
       <use style="stroke:#000000;stroke-width:0.8;" x="49.458807" xlink:href="#m1b3be06d51" y="239.758125"/>
      </g>
     </g>
     <g id="text_1">
      <!-- 0 -->
      <defs>
       <path d="M 31.78125 66.40625 
Q 24.171875 66.40625 20.328125 58.90625 
Q 16.5 51.421875 16.5 36.375 
Q 16.5 21.390625 20.328125 13.890625 
Q 24.171875 6.390625 31.78125 6.390625 
Q 39.453125 6.390625 43.28125 13.890625 
Q 47.125 21.390625 47.125 36.375 
Q 47.125 51.421875 43.28125 58.90625 
Q 39.453125 66.40625 31.78125 66.40625 
z
M 31.78125 74.21875 
Q 44.046875 74.21875 50.515625 64.515625 
Q 56.984375 54.828125 56.984375 36.375 
Q 56.984375 17.96875 50.515625 8.265625 
Q 44.046875 -1.421875 31.78125 -1.421875 
Q 19.53125 -1.421875 13.0625 8.265625 
Q 6.59375 17.96875 6.59375 36.375 
Q 6.59375 54.828125 13.0625 64.515625 
Q 19.53125 74.21875 31.78125 74.21875 
z
" id="DejaVuSans-48"/>
      </defs>
      <g transform="translate(46.277557 254.356562)scale(0.1 -0.1)">
       <use xlink:href="#DejaVuSans-48"/>
      </g>
     </g>
    </g>
    <g id="xtick_2">
     <g id="line2d_2">
      <g>
       <use style="stroke:#000000;stroke-width:0.8;" x="87.505213" xlink:href="#m1b3be06d51" y="239.758125"/>
      </g>
     </g>
     <g id="text_2">
      <!-- 5000 -->
      <defs>
       <path d="M 10.796875 72.90625 
L 49.515625 72.90625 
L 49.515625 64.59375 
L 19.828125 64.59375 
L 19.828125 46.734375 
Q 21.96875 47.46875 24.109375 47.828125 
Q 26.265625 48.1875 28.421875 48.1875 
Q 40.625 48.1875 47.75 41.5 
Q 54.890625 34.8125 54.890625 23.390625 
Q 54.890625 11.625 47.5625 5.09375 
Q 40.234375 -1.421875 26.90625 -1.421875 
Q 22.3125 -1.421875 17.546875 -0.640625 
Q 12.796875 0.140625 7.71875 1.703125 
L 7.71875 11.625 
Q 12.109375 9.234375 16.796875 8.0625 
Q 21.484375 6.890625 26.703125 6.890625 
Q 35.15625 6.890625 40.078125 11.328125 
Q 45.015625 15.765625 45.015625 23.390625 
Q 45.015625 31 40.078125 35.4375 
Q 35.15625 39.890625 26.703125 39.890625 
Q 22.75 39.890625 18.8125 39.015625 
Q 14.890625 38.140625 10.796875 36.28125 
z
" id="DejaVuSans-53"/>
      </defs>
      <g transform="translate(74.780213 254.356562)scale(0.1 -0.1)">
       <use xlink:href="#DejaVuSans-53"/>
       <use x="63.623047" xlink:href="#DejaVuSans-48"/>
       <use x="127.246094" xlink:href="#DejaVuSans-48"/>
       <use x="190.869141" xlink:href="#DejaVuSans-48"/>
      </g>
     </g>
    </g>
    <g id="xtick_3">
     <g id="line2d_3">
      <g>
       <use style="stroke:#000000;stroke-width:0.8;" x="125.551618" xlink:href="#m1b3be06d51" y="239.758125"/>
      </g>
     </g>
     <g id="text_3">
      <!-- 10000 -->
      <defs>
       <path d="M 12.40625 8.296875 
L 28.515625 8.296875 
L 28.515625 63.921875 
L 10.984375 60.40625 
L 10.984375 69.390625 
L 28.421875 72.90625 
L 38.28125 72.90625 
L 38.28125 8.296875 
L 54.390625 8.296875 
L 54.390625 0 
L 12.40625 0 
z
" id="DejaVuSans-49"/>
      </defs>
      <g transform="translate(109.645368 254.356562)scale(0.1 -0.1)">
       <use xlink:href="#DejaVuSans-49"/>
       <use x="63.623047" xlink:href="#DejaVuSans-48"/>
       <use x="127.246094" xlink:href="#DejaVuSans-48"/>
       <use x="190.869141" xlink:href="#DejaVuSans-48"/>
       <use x="254.492188" xlink:href="#DejaVuSans-48"/>
      </g>
     </g>
    </g>
    <g id="xtick_4">
     <g id="line2d_4">
      <g>
       <use style="stroke:#000000;stroke-width:0.8;" x="163.598024" xlink:href="#m1b3be06d51" y="239.758125"/>
      </g>
     </g>
     <g id="text_4">
      <!-- 15000 -->
      <g transform="translate(147.691774 254.356562)scale(0.1 -0.1)">
       <use xlink:href="#DejaVuSans-49"/>
       <use x="63.623047" xlink:href="#DejaVuSans-53"/>
       <use x="127.246094" xlink:href="#DejaVuSans-48"/>
       <use x="190.869141" xlink:href="#DejaVuSans-48"/>
       <use x="254.492188" xlink:href="#DejaVuSans-48"/>
      </g>
     </g>
    </g>
    <g id="xtick_5">
     <g id="line2d_5">
      <g>
       <use style="stroke:#000000;stroke-width:0.8;" x="201.64443" xlink:href="#m1b3be06d51" y="239.758125"/>
      </g>
     </g>
     <g id="text_5">
      <!-- 20000 -->
      <defs>
       <path d="M 19.1875 8.296875 
L 53.609375 8.296875 
L 53.609375 0 
L 7.328125 0 
L 7.328125 8.296875 
Q 12.9375 14.109375 22.625 23.890625 
Q 32.328125 33.6875 34.8125 36.53125 
Q 39.546875 41.84375 41.421875 45.53125 
Q 43.3125 49.21875 43.3125 52.78125 
Q 43.3125 58.59375 39.234375 62.25 
Q 35.15625 65.921875 28.609375 65.921875 
Q 23.96875 65.921875 18.8125 64.3125 
Q 13.671875 62.703125 7.8125 59.421875 
L 7.8125 69.390625 
Q 13.765625 71.78125 18.9375 73 
Q 24.125 74.21875 28.421875 74.21875 
Q 39.75 74.21875 46.484375 68.546875 
Q 53.21875 62.890625 53.21875 53.421875 
Q 53.21875 48.921875 51.53125 44.890625 
Q 49.859375 40.875 45.40625 35.40625 
Q 44.1875 33.984375 37.640625 27.21875 
Q 31.109375 20.453125 19.1875 8.296875 
z
" id="DejaVuSans-50"/>
      </defs>
      <g transform="translate(185.73818 254.356562)scale(0.1 -0.1)">
       <use xlink:href="#DejaVuSans-50"/>
       <use x="63.623047" xlink:href="#DejaVuSans-48"/>
       <use x="127.246094" xlink:href="#DejaVuSans-48"/>
       <use x="190.869141" xlink:href="#DejaVuSans-48"/>
       <use x="254.492188" xlink:href="#DejaVuSans-48"/>
      </g>
     </g>
    </g>
    <g id="xtick_6">
     <g id="line2d_6">
      <g>
       <use style="stroke:#000000;stroke-width:0.8;" x="239.690835" xlink:href="#m1b3be06d51" y="239.758125"/>
      </g>
     </g>
     <g id="text_6">
      <!-- 25000 -->
      <g transform="translate(223.784585 254.356562)scale(0.1 -0.1)">
       <use xlink:href="#DejaVuSans-50"/>
       <use x="63.623047" xlink:href="#DejaVuSans-53"/>
       <use x="127.246094" xlink:href="#DejaVuSans-48"/>
       <use x="190.869141" xlink:href="#DejaVuSans-48"/>
       <use x="254.492188" xlink:href="#DejaVuSans-48"/>
      </g>
     </g>
    </g>
    <g id="xtick_7">
     <g id="line2d_7">
      <g>
       <use style="stroke:#000000;stroke-width:0.8;" x="277.737241" xlink:href="#m1b3be06d51" y="239.758125"/>
      </g>
     </g>
     <g id="text_7">
      <!-- 30000 -->
      <defs>
       <path d="M 40.578125 39.3125 
Q 47.65625 37.796875 51.625 33 
Q 55.609375 28.21875 55.609375 21.1875 
Q 55.609375 10.40625 48.1875 4.484375 
Q 40.765625 -1.421875 27.09375 -1.421875 
Q 22.515625 -1.421875 17.65625 -0.515625 
Q 12.796875 0.390625 7.625 2.203125 
L 7.625 11.71875 
Q 11.71875 9.328125 16.59375 8.109375 
Q 21.484375 6.890625 26.8125 6.890625 
Q 36.078125 6.890625 40.9375 10.546875 
Q 45.796875 14.203125 45.796875 21.1875 
Q 45.796875 27.640625 41.28125 31.265625 
Q 36.765625 34.90625 28.71875 34.90625 
L 20.21875 34.90625 
L 20.21875 43.015625 
L 29.109375 43.015625 
Q 36.375 43.015625 40.234375 45.921875 
Q 44.09375 48.828125 44.09375 54.296875 
Q 44.09375 59.90625 40.109375 62.90625 
Q 36.140625 65.921875 28.71875 65.921875 
Q 24.65625 65.921875 20.015625 65.03125 
Q 15.375 64.15625 9.8125 62.3125 
L 9.8125 71.09375 
Q 15.4375 72.65625 20.34375 73.4375 
Q 25.25 74.21875 29.59375 74.21875 
Q 40.828125 74.21875 47.359375 69.109375 
Q 53.90625 64.015625 53.90625 55.328125 
Q 53.90625 49.265625 50.4375 45.09375 
Q 46.96875 40.921875 40.578125 39.3125 
z
" id="DejaVuSans-51"/>
      </defs>
      <g transform="translate(261.830991 254.356562)scale(0.1 -0.1)">
       <use xlink:href="#DejaVuSans-51"/>
       <use x="63.623047" xlink:href="#DejaVuSans-48"/>
       <use x="127.246094" xlink:href="#DejaVuSans-48"/>
       <use x="190.869141" xlink:href="#DejaVuSans-48"/>
       <use x="254.492188" xlink:href="#DejaVuSans-48"/>
      </g>
     </g>
    </g>
    <g id="xtick_8">
     <g id="line2d_8">
      <g>
       <use style="stroke:#000000;stroke-width:0.8;" x="315.783647" xlink:href="#m1b3be06d51" y="239.758125"/>
      </g>
     </g>
     <g id="text_8">
      <!-- 35000 -->
      <g transform="translate(299.877397 254.356562)scale(0.1 -0.1)">
       <use xlink:href="#DejaVuSans-51"/>
       <use x="63.623047" xlink:href="#DejaVuSans-53"/>
       <use x="127.246094" xlink:href="#DejaVuSans-48"/>
       <use x="190.869141" xlink:href="#DejaVuSans-48"/>
       <use x="254.492188" xlink:href="#DejaVuSans-48"/>
      </g>
     </g>
    </g>
    <g id="xtick_9">
     <g id="line2d_9">
      <g>
       <use style="stroke:#000000;stroke-width:0.8;" x="353.830052" xlink:href="#m1b3be06d51" y="239.758125"/>
      </g>
     </g>
     <g id="text_9">
      <!-- 40000 -->
      <defs>
       <path d="M 37.796875 64.3125 
L 12.890625 25.390625 
L 37.796875 25.390625 
z
M 35.203125 72.90625 
L 47.609375 72.90625 
L 47.609375 25.390625 
L 58.015625 25.390625 
L 58.015625 17.1875 
L 47.609375 17.1875 
L 47.609375 0 
L 37.796875 0 
L 37.796875 17.1875 
L 4.890625 17.1875 
L 4.890625 26.703125 
z
" id="DejaVuSans-52"/>
      </defs>
      <g transform="translate(337.923802 254.356562)scale(0.1 -0.1)">
       <use xlink:href="#DejaVuSans-52"/>
       <use x="63.623047" xlink:href="#DejaVuSans-48"/>
       <use x="127.246094" xlink:href="#DejaVuSans-48"/>
       <use x="190.869141" xlink:href="#DejaVuSans-48"/>
       <use x="254.492188" xlink:href="#DejaVuSans-48"/>
      </g>
     </g>
    </g>
    <g id="text_10">
     <!-- number of iterations -->
     <defs>
      <path d="M 54.890625 33.015625 
L 54.890625 0 
L 45.90625 0 
L 45.90625 32.71875 
Q 45.90625 40.484375 42.875 44.328125 
Q 39.84375 48.1875 33.796875 48.1875 
Q 26.515625 48.1875 22.3125 43.546875 
Q 18.109375 38.921875 18.109375 30.90625 
L 18.109375 0 
L 9.078125 0 
L 9.078125 54.6875 
L 18.109375 54.6875 
L 18.109375 46.1875 
Q 21.34375 51.125 25.703125 53.5625 
Q 30.078125 56 35.796875 56 
Q 45.21875 56 50.046875 50.171875 
Q 54.890625 44.34375 54.890625 33.015625 
z
" id="DejaVuSans-110"/>
      <path d="M 8.5 21.578125 
L 8.5 54.6875 
L 17.484375 54.6875 
L 17.484375 21.921875 
Q 17.484375 14.15625 20.5 10.265625 
Q 23.53125 6.390625 29.59375 6.390625 
Q 36.859375 6.390625 41.078125 11.03125 
Q 45.3125 15.671875 45.3125 23.6875 
L 45.3125 54.6875 
L 54.296875 54.6875 
L 54.296875 0 
L 45.3125 0 
L 45.3125 8.40625 
Q 42.046875 3.421875 37.71875 1 
Q 33.40625 -1.421875 27.6875 -1.421875 
Q 18.265625 -1.421875 13.375 4.4375 
Q 8.5 10.296875 8.5 21.578125 
z
M 31.109375 56 
z
" id="DejaVuSans-117"/>
      <path d="M 52 44.1875 
Q 55.375 50.25 60.0625 53.125 
Q 64.75 56 71.09375 56 
Q 79.640625 56 84.28125 50.015625 
Q 88.921875 44.046875 88.921875 33.015625 
L 88.921875 0 
L 79.890625 0 
L 79.890625 32.71875 
Q 79.890625 40.578125 77.09375 44.375 
Q 74.3125 48.1875 68.609375 48.1875 
Q 61.625 48.1875 57.5625 43.546875 
Q 53.515625 38.921875 53.515625 30.90625 
L 53.515625 0 
L 44.484375 0 
L 44.484375 32.71875 
Q 44.484375 40.625 41.703125 44.40625 
Q 38.921875 48.1875 33.109375 48.1875 
Q 26.21875 48.1875 22.15625 43.53125 
Q 18.109375 38.875 18.109375 30.90625 
L 18.109375 0 
L 9.078125 0 
L 9.078125 54.6875 
L 18.109375 54.6875 
L 18.109375 46.1875 
Q 21.1875 51.21875 25.484375 53.609375 
Q 29.78125 56 35.6875 56 
Q 41.65625 56 45.828125 52.96875 
Q 50 49.953125 52 44.1875 
z
" id="DejaVuSans-109"/>
      <path d="M 48.6875 27.296875 
Q 48.6875 37.203125 44.609375 42.84375 
Q 40.53125 48.484375 33.40625 48.484375 
Q 26.265625 48.484375 22.1875 42.84375 
Q 18.109375 37.203125 18.109375 27.296875 
Q 18.109375 17.390625 22.1875 11.75 
Q 26.265625 6.109375 33.40625 6.109375 
Q 40.53125 6.109375 44.609375 11.75 
Q 48.6875 17.390625 48.6875 27.296875 
z
M 18.109375 46.390625 
Q 20.953125 51.265625 25.265625 53.625 
Q 29.59375 56 35.59375 56 
Q 45.5625 56 51.78125 48.09375 
Q 58.015625 40.1875 58.015625 27.296875 
Q 58.015625 14.40625 51.78125 6.484375 
Q 45.5625 -1.421875 35.59375 -1.421875 
Q 29.59375 -1.421875 25.265625 0.953125 
Q 20.953125 3.328125 18.109375 8.203125 
L 18.109375 0 
L 9.078125 0 
L 9.078125 75.984375 
L 18.109375 75.984375 
z
" id="DejaVuSans-98"/>
      <path d="M 56.203125 29.59375 
L 56.203125 25.203125 
L 14.890625 25.203125 
Q 15.484375 15.921875 20.484375 11.0625 
Q 25.484375 6.203125 34.421875 6.203125 
Q 39.59375 6.203125 44.453125 7.46875 
Q 49.3125 8.734375 54.109375 11.28125 
L 54.109375 2.78125 
Q 49.265625 0.734375 44.1875 -0.34375 
Q 39.109375 -1.421875 33.890625 -1.421875 
Q 20.796875 -1.421875 13.15625 6.1875 
Q 5.515625 13.8125 5.515625 26.8125 
Q 5.515625 40.234375 12.765625 48.109375 
Q 20.015625 56 32.328125 56 
Q 43.359375 56 49.78125 48.890625 
Q 56.203125 41.796875 56.203125 29.59375 
z
M 47.21875 32.234375 
Q 47.125 39.59375 43.09375 43.984375 
Q 39.0625 48.390625 32.421875 48.390625 
Q 24.90625 48.390625 20.390625 44.140625 
Q 15.875 39.890625 15.1875 32.171875 
z
" id="DejaVuSans-101"/>
      <path d="M 41.109375 46.296875 
Q 39.59375 47.171875 37.8125 47.578125 
Q 36.03125 48 33.890625 48 
Q 26.265625 48 22.1875 43.046875 
Q 18.109375 38.09375 18.109375 28.8125 
L 18.109375 0 
L 9.078125 0 
L 9.078125 54.6875 
L 18.109375 54.6875 
L 18.109375 46.1875 
Q 20.953125 51.171875 25.484375 53.578125 
Q 30.03125 56 36.53125 56 
Q 37.453125 56 38.578125 55.875 
Q 39.703125 55.765625 41.0625 55.515625 
z
" id="DejaVuSans-114"/>
      <path id="DejaVuSans-32"/>
      <path d="M 30.609375 48.390625 
Q 23.390625 48.390625 19.1875 42.75 
Q 14.984375 37.109375 14.984375 27.296875 
Q 14.984375 17.484375 19.15625 11.84375 
Q 23.34375 6.203125 30.609375 6.203125 
Q 37.796875 6.203125 41.984375 11.859375 
Q 46.1875 17.53125 46.1875 27.296875 
Q 46.1875 37.015625 41.984375 42.703125 
Q 37.796875 48.390625 30.609375 48.390625 
z
M 30.609375 56 
Q 42.328125 56 49.015625 48.375 
Q 55.71875 40.765625 55.71875 27.296875 
Q 55.71875 13.875 49.015625 6.21875 
Q 42.328125 -1.421875 30.609375 -1.421875 
Q 18.84375 -1.421875 12.171875 6.21875 
Q 5.515625 13.875 5.515625 27.296875 
Q 5.515625 40.765625 12.171875 48.375 
Q 18.84375 56 30.609375 56 
z
" id="DejaVuSans-111"/>
      <path d="M 37.109375 75.984375 
L 37.109375 68.5 
L 28.515625 68.5 
Q 23.6875 68.5 21.796875 66.546875 
Q 19.921875 64.59375 19.921875 59.515625 
L 19.921875 54.6875 
L 34.71875 54.6875 
L 34.71875 47.703125 
L 19.921875 47.703125 
L 19.921875 0 
L 10.890625 0 
L 10.890625 47.703125 
L 2.296875 47.703125 
L 2.296875 54.6875 
L 10.890625 54.6875 
L 10.890625 58.5 
Q 10.890625 67.625 15.140625 71.796875 
Q 19.390625 75.984375 28.609375 75.984375 
z
" id="DejaVuSans-102"/>
      <path d="M 9.421875 54.6875 
L 18.40625 54.6875 
L 18.40625 0 
L 9.421875 0 
z
M 9.421875 75.984375 
L 18.40625 75.984375 
L 18.40625 64.59375 
L 9.421875 64.59375 
z
" id="DejaVuSans-105"/>
      <path d="M 18.3125 70.21875 
L 18.3125 54.6875 
L 36.8125 54.6875 
L 36.8125 47.703125 
L 18.3125 47.703125 
L 18.3125 18.015625 
Q 18.3125 11.328125 20.140625 9.421875 
Q 21.96875 7.515625 27.59375 7.515625 
L 36.8125 7.515625 
L 36.8125 0 
L 27.59375 0 
Q 17.1875 0 13.234375 3.875 
Q 9.28125 7.765625 9.28125 18.015625 
L 9.28125 47.703125 
L 2.6875 47.703125 
L 2.6875 54.6875 
L 9.28125 54.6875 
L 9.28125 70.21875 
z
" id="DejaVuSans-116"/>
      <path d="M 34.28125 27.484375 
Q 23.390625 27.484375 19.1875 25 
Q 14.984375 22.515625 14.984375 16.5 
Q 14.984375 11.71875 18.140625 8.90625 
Q 21.296875 6.109375 26.703125 6.109375 
Q 34.1875 6.109375 38.703125 11.40625 
Q 43.21875 16.703125 43.21875 25.484375 
L 43.21875 27.484375 
z
M 52.203125 31.203125 
L 52.203125 0 
L 43.21875 0 
L 43.21875 8.296875 
Q 40.140625 3.328125 35.546875 0.953125 
Q 30.953125 -1.421875 24.3125 -1.421875 
Q 15.921875 -1.421875 10.953125 3.296875 
Q 6 8.015625 6 15.921875 
Q 6 25.140625 12.171875 29.828125 
Q 18.359375 34.515625 30.609375 34.515625 
L 43.21875 34.515625 
L 43.21875 35.40625 
Q 43.21875 41.609375 39.140625 45 
Q 35.0625 48.390625 27.6875 48.390625 
Q 23 48.390625 18.546875 47.265625 
Q 14.109375 46.140625 10.015625 43.890625 
L 10.015625 52.203125 
Q 14.9375 54.109375 19.578125 55.046875 
Q 24.21875 56 28.609375 56 
Q 40.484375 56 46.34375 49.84375 
Q 52.203125 43.703125 52.203125 31.203125 
z
" id="DejaVuSans-97"/>
      <path d="M 44.28125 53.078125 
L 44.28125 44.578125 
Q 40.484375 46.53125 36.375 47.5 
Q 32.28125 48.484375 27.875 48.484375 
Q 21.1875 48.484375 17.84375 46.4375 
Q 14.5 44.390625 14.5 40.28125 
Q 14.5 37.15625 16.890625 35.375 
Q 19.28125 33.59375 26.515625 31.984375 
L 29.59375 31.296875 
Q 39.15625 29.25 43.1875 25.515625 
Q 47.21875 21.78125 47.21875 15.09375 
Q 47.21875 7.46875 41.1875 3.015625 
Q 35.15625 -1.421875 24.609375 -1.421875 
Q 20.21875 -1.421875 15.453125 -0.5625 
Q 10.6875 0.296875 5.421875 2 
L 5.421875 11.28125 
Q 10.40625 8.6875 15.234375 7.390625 
Q 20.0625 6.109375 24.8125 6.109375 
Q 31.15625 6.109375 34.5625 8.28125 
Q 37.984375 10.453125 37.984375 14.40625 
Q 37.984375 18.0625 35.515625 20.015625 
Q 33.0625 21.96875 24.703125 23.78125 
L 21.578125 24.515625 
Q 13.234375 26.265625 9.515625 29.90625 
Q 5.8125 33.546875 5.8125 39.890625 
Q 5.8125 47.609375 11.28125 51.796875 
Q 16.75 56 26.8125 56 
Q 31.78125 56 36.171875 55.265625 
Q 40.578125 54.546875 44.28125 53.078125 
z
" id="DejaVuSans-115"/>
     </defs>
     <g transform="translate(150.401563 268.034687)scale(0.1 -0.1)">
      <use xlink:href="#DejaVuSans-110"/>
      <use x="63.378906" xlink:href="#DejaVuSans-117"/>
      <use x="126.757812" xlink:href="#DejaVuSans-109"/>
      <use x="224.169922" xlink:href="#DejaVuSans-98"/>
      <use x="287.646484" xlink:href="#DejaVuSans-101"/>
      <use x="349.169922" xlink:href="#DejaVuSans-114"/>
      <use x="390.283203" xlink:href="#DejaVuSans-32"/>
      <use x="422.070312" xlink:href="#DejaVuSans-111"/>
      <use x="483.251953" xlink:href="#DejaVuSans-102"/>
      <use x="518.457031" xlink:href="#DejaVuSans-32"/>
      <use x="550.244141" xlink:href="#DejaVuSans-105"/>
      <use x="578.027344" xlink:href="#DejaVuSans-116"/>
      <use x="617.236328" xlink:href="#DejaVuSans-101"/>
      <use x="678.759766" xlink:href="#DejaVuSans-114"/>
      <use x="719.873047" xlink:href="#DejaVuSans-97"/>
      <use x="781.152344" xlink:href="#DejaVuSans-116"/>
      <use x="820.361328" xlink:href="#DejaVuSans-105"/>
      <use x="848.144531" xlink:href="#DejaVuSans-111"/>
      <use x="909.326172" xlink:href="#DejaVuSans-110"/>
      <use x="972.705078" xlink:href="#DejaVuSans-115"/>
     </g>
    </g>
   </g>
   <g id="matplotlib.axis_2">
    <g id="ytick_1">
     <g id="line2d_10">
      <defs>
       <path d="M 0 0 
L -3.5 0 
" id="m447c3b38fd" style="stroke:#000000;stroke-width:0.8;"/>
      </defs>
      <g>
       <use style="stroke:#000000;stroke-width:0.8;" x="34.240625" xlink:href="#m447c3b38fd" y="229.873858"/>
      </g>
     </g>
     <g id="text_11">
      <!-- 0 -->
      <g transform="translate(20.878125 233.673077)scale(0.1 -0.1)">
       <use xlink:href="#DejaVuSans-48"/>
      </g>
     </g>
    </g>
    <g id="ytick_2">
     <g id="line2d_11">
      <g>
       <use style="stroke:#000000;stroke-width:0.8;" x="34.240625" xlink:href="#m447c3b38fd" y="182.262999"/>
      </g>
     </g>
     <g id="text_12">
      <!-- 2 -->
      <g transform="translate(20.878125 186.062218)scale(0.1 -0.1)">
       <use xlink:href="#DejaVuSans-50"/>
      </g>
     </g>
    </g>
    <g id="ytick_3">
     <g id="line2d_12">
      <g>
       <use style="stroke:#000000;stroke-width:0.8;" x="34.240625" xlink:href="#m447c3b38fd" y="134.652141"/>
      </g>
     </g>
     <g id="text_13">
      <!-- 4 -->
      <g transform="translate(20.878125 138.451359)scale(0.1 -0.1)">
       <use xlink:href="#DejaVuSans-52"/>
      </g>
     </g>
    </g>
    <g id="ytick_4">
     <g id="line2d_13">
      <g>
       <use style="stroke:#000000;stroke-width:0.8;" x="34.240625" xlink:href="#m447c3b38fd" y="87.041282"/>
      </g>
     </g>
     <g id="text_14">
      <!-- 6 -->
      <defs>
       <path d="M 33.015625 40.375 
Q 26.375 40.375 22.484375 35.828125 
Q 18.609375 31.296875 18.609375 23.390625 
Q 18.609375 15.53125 22.484375 10.953125 
Q 26.375 6.390625 33.015625 6.390625 
Q 39.65625 6.390625 43.53125 10.953125 
Q 47.40625 15.53125 47.40625 23.390625 
Q 47.40625 31.296875 43.53125 35.828125 
Q 39.65625 40.375 33.015625 40.375 
z
M 52.59375 71.296875 
L 52.59375 62.3125 
Q 48.875 64.0625 45.09375 64.984375 
Q 41.3125 65.921875 37.59375 65.921875 
Q 27.828125 65.921875 22.671875 59.328125 
Q 17.53125 52.734375 16.796875 39.40625 
Q 19.671875 43.65625 24.015625 45.921875 
Q 28.375 48.1875 33.59375 48.1875 
Q 44.578125 48.1875 50.953125 41.515625 
Q 57.328125 34.859375 57.328125 23.390625 
Q 57.328125 12.15625 50.6875 5.359375 
Q 44.046875 -1.421875 33.015625 -1.421875 
Q 20.359375 -1.421875 13.671875 8.265625 
Q 6.984375 17.96875 6.984375 36.375 
Q 6.984375 53.65625 15.1875 63.9375 
Q 23.390625 74.21875 37.203125 74.21875 
Q 40.921875 74.21875 44.703125 73.484375 
Q 48.484375 72.75 52.59375 71.296875 
z
" id="DejaVuSans-54"/>
      </defs>
      <g transform="translate(20.878125 90.840501)scale(0.1 -0.1)">
       <use xlink:href="#DejaVuSans-54"/>
      </g>
     </g>
    </g>
    <g id="ytick_5">
     <g id="line2d_14">
      <g>
       <use style="stroke:#000000;stroke-width:0.8;" x="34.240625" xlink:href="#m447c3b38fd" y="39.430424"/>
      </g>
     </g>
     <g id="text_15">
      <!-- 8 -->
      <defs>
       <path d="M 31.78125 34.625 
Q 24.75 34.625 20.71875 30.859375 
Q 16.703125 27.09375 16.703125 20.515625 
Q 16.703125 13.921875 20.71875 10.15625 
Q 24.75 6.390625 31.78125 6.390625 
Q 38.8125 6.390625 42.859375 10.171875 
Q 46.921875 13.96875 46.921875 20.515625 
Q 46.921875 27.09375 42.890625 30.859375 
Q 38.875 34.625 31.78125 34.625 
z
M 21.921875 38.8125 
Q 15.578125 40.375 12.03125 44.71875 
Q 8.5 49.078125 8.5 55.328125 
Q 8.5 64.0625 14.71875 69.140625 
Q 20.953125 74.21875 31.78125 74.21875 
Q 42.671875 74.21875 48.875 69.140625 
Q 55.078125 64.0625 55.078125 55.328125 
Q 55.078125 49.078125 51.53125 44.71875 
Q 48 40.375 41.703125 38.8125 
Q 48.828125 37.15625 52.796875 32.3125 
Q 56.78125 27.484375 56.78125 20.515625 
Q 56.78125 9.90625 50.3125 4.234375 
Q 43.84375 -1.421875 31.78125 -1.421875 
Q 19.734375 -1.421875 13.25 4.234375 
Q 6.78125 9.90625 6.78125 20.515625 
Q 6.78125 27.484375 10.78125 32.3125 
Q 14.796875 37.15625 21.921875 38.8125 
z
M 18.3125 54.390625 
Q 18.3125 48.734375 21.84375 45.5625 
Q 25.390625 42.390625 31.78125 42.390625 
Q 38.140625 42.390625 41.71875 45.5625 
Q 45.3125 48.734375 45.3125 54.390625 
Q 45.3125 60.0625 41.71875 63.234375 
Q 38.140625 66.40625 31.78125 66.40625 
Q 25.390625 66.40625 21.84375 63.234375 
Q 18.3125 60.0625 18.3125 54.390625 
z
" id="DejaVuSans-56"/>
      </defs>
      <g transform="translate(20.878125 43.229642)scale(0.1 -0.1)">
       <use xlink:href="#DejaVuSans-56"/>
      </g>
     </g>
    </g>
    <g id="text_16">
     <!-- MI estimation -->
     <defs>
      <path d="M 9.8125 72.90625 
L 24.515625 72.90625 
L 43.109375 23.296875 
L 61.8125 72.90625 
L 76.515625 72.90625 
L 76.515625 0 
L 66.890625 0 
L 66.890625 64.015625 
L 48.09375 14.015625 
L 38.1875 14.015625 
L 19.390625 64.015625 
L 19.390625 0 
L 9.8125 0 
z
" id="DejaVuSans-77"/>
      <path d="M 9.8125 72.90625 
L 19.671875 72.90625 
L 19.671875 0 
L 9.8125 0 
z
" id="DejaVuSans-73"/>
     </defs>
     <g transform="translate(14.798437 164.958437)rotate(-90)scale(0.1 -0.1)">
      <use xlink:href="#DejaVuSans-77"/>
      <use x="86.279297" xlink:href="#DejaVuSans-73"/>
      <use x="115.771484" xlink:href="#DejaVuSans-32"/>
      <use x="147.558594" xlink:href="#DejaVuSans-101"/>
      <use x="209.082031" xlink:href="#DejaVuSans-115"/>
      <use x="261.181641" xlink:href="#DejaVuSans-116"/>
      <use x="300.390625" xlink:href="#DejaVuSans-105"/>
      <use x="328.173828" xlink:href="#DejaVuSans-109"/>
      <use x="425.585938" xlink:href="#DejaVuSans-97"/>
      <use x="486.865234" xlink:href="#DejaVuSans-116"/>
      <use x="526.074219" xlink:href="#DejaVuSans-105"/>
      <use x="553.857422" xlink:href="#DejaVuSans-111"/>
      <use x="615.039062" xlink:href="#DejaVuSans-110"/>
     </g>
    </g>
   </g>
   <g id="line2d_15">
    <path clip-path="url(#p1d4eed9ace)" d="M 49.458807 229.874489 
L 50.288218 229.766005 
L 50.546934 229.524464 
L 50.79804 229.000536 
L 51.071974 227.907634 
L 51.361127 225.893849 
L 51.75681 221.293219 
L 52.243804 212.194724 
L 54.557025 157.612786 
L 55.173377 149.214113 
L 55.77451 143.218079 
L 56.018007 141.275723 
L 56.41369 138.74644 
L 56.482173 138.361651 
L 56.900684 136.260875 
L 57.311585 134.522703 
L 57.920327 132.57113 
L 57.988811 132.405765 
L 58.171434 131.838971 
L 58.513851 131.010195 
L 58.688865 130.6909 
L 58.74213 130.567628 
L 58.932362 130.146537 
L 59.191077 129.664894 
L 59.419356 129.243854 
L 59.434574 129.248314 
L 59.457402 129.171465 
L 59.465012 129.162884 
L 59.69329 128.870642 
L 59.875913 128.613895 
L 60.096582 128.30809 
L 60.233549 128.045879 
L 60.477046 127.771323 
L 60.819464 127.446418 
L 61.009696 127.235818 
L 62.425022 126.17754 
L 62.523943 126.099394 
L 62.752221 125.969761 
L 62.75983 125.977001 
L 62.851142 125.919844 
L 63.50554 125.469381 
L 63.513149 125.486058 
L 63.581633 125.40355 
L 63.60446 125.432311 
L 64.220812 125.158134 
L 64.228422 125.184966 
L 64.319733 125.128819 
L 64.327342 125.131924 
L 64.555621 125.122854 
L 64.783899 124.981248 
L 64.837164 124.92535 
L 64.890429 124.941191 
L 65.164363 124.731354 
L 65.324158 124.629328 
L 65.339377 124.6478 
L 65.461125 124.649113 
L 65.62092 124.586838 
L 66.069868 124.468515 
L 66.336192 124.348456 
L 66.450332 124.365527 
L 66.46555 124.344199 
L 66.632954 124.313633 
L 68.101546 123.92184 
L 68.238513 123.855402 
L 68.345043 123.85288 
L 68.48201 123.793327 
L 68.558102 123.796078 
L 68.596149 123.742508 
L 68.786381 123.683412 
L 68.961394 123.721332 
L 68.969004 123.742527 
L 69.060315 123.695015 
L 69.159236 123.701467 
L 69.174454 123.710546 
L 69.509263 123.694219 
L 69.547309 123.732372 
L 69.615793 123.671858 
L 69.767978 123.701495 
L 69.775587 123.693854 
L 70.06474 123.650278 
L 70.17127 123.646597 
L 70.178879 123.638909 
L 70.399549 123.55208 
L 70.726748 123.528066 
L 70.955026 123.447615 
L 71.137649 123.469195 
L 71.33549 123.446134 
L 71.480066 123.44385 
L 71.601815 123.435579 
L 71.609424 123.425022 
L 71.776828 123.322543 
L 71.799656 123.341442 
L 71.997498 123.406581 
L 72.240995 123.344357 
L 72.362743 123.310548 
L 72.651896 123.31771 
L 72.788863 123.308883 
L 73.367168 123.306677 
L 73.511745 123.253235 
L 73.656321 123.276302 
L 73.831334 123.23325 
L 73.861771 123.258226 
L 73.998738 123.196964 
L 74.19658 123.137377 
L 74.949899 123.06004 
L 75.117303 123.009173 
L 74.972726 123.087423 
L 75.124912 123.020511 
L 75.383628 123.043433 
L 75.596688 123.018497 
L 75.748873 122.993893 
L 75.954324 122.989026 
L 76.060854 122.954639 
L 76.144556 122.901229 
L 76.182602 122.954762 
L 76.966358 122.889964 
L 77.141372 122.91264 
L 77.323994 122.87233 
L 77.331604 122.881288 
L 77.460961 122.858566 
L 77.833816 122.865643 
L 78.00122 122.765836 
L 78.990427 122.741269 
L 79.766574 122.646564 
L 79.895931 122.646257 
L 81.1819 122.636881 
L 81.265602 122.573906 
L 81.311258 122.605624 
L 81.455834 122.668305 
L 81.471053 122.653959 
L 81.729768 122.578815 
L 82.018921 122.528804 
L 82.140669 122.502737 
L 82.285246 122.466203 
L 84.218003 122.593397 
L 84.286487 122.582121 
L 84.316924 122.551299 
L 86.68341 122.397345 
L 86.805159 122.383511 
L 86.942126 122.471574 
L 87.124748 122.430513 
L 87.284543 122.427941 
L 87.413901 122.405657 
L 87.543259 122.405186 
L 87.611742 122.422432 
L 87.657398 122.390843 
L 87.900895 122.379394 
L 88.304187 122.336597 
L 88.509638 122.278871 
L 88.631386 122.267493 
L 88.775962 122.250311 
L 88.783572 122.258276 
L 89.019459 122.331352 
L 89.042287 122.35405 
L 89.141208 122.344521 
L 89.301003 122.328167 
L 89.453188 122.362207 
L 89.460798 122.347501 
L 89.673858 122.346527 
L 89.902136 122.331169 
L 89.940182 122.358364 
L 90.023885 122.34782 
L 90.351084 122.352036 
L 90.609799 122.297778 
L 90.800031 122.226737 
L 90.822859 122.249524 
L 90.906561 122.199871 
L 91.332681 122.277709 
L 91.507694 122.22844 
L 91.652271 122.286766 
L 91.941423 122.250549 
L 92.116437 122.249164 
L 92.162093 122.279646 
L 92.222967 122.229298 
L 92.413199 122.226804 
L 92.50451 122.304255 
L 92.534947 122.27888 
L 92.702352 122.288002 
L 92.801272 122.295655 
L 92.816491 122.281568 
L 92.953458 122.250611 
L 93.128471 122.277401 
L 93.311094 122.247179 
L 93.417624 122.250837 
L 93.432843 122.240708 
L 94.224208 122.182318 
L 94.787295 122.22889 
L 94.931871 122.219939 
L 94.985136 122.177787 
L 95.038401 122.243425 
L 95.15254 122.253178 
L 95.160149 122.243401 
L 95.342772 122.227468 
L 95.396037 122.261472 
L 95.456911 122.232867 
L 95.609097 122.182022 
L 95.883031 122.199942 
L 96.080872 122.223787 
L 96.63635 122.24726 
L 96.765708 122.203742 
L 96.773317 122.214952 
L 97.047251 122.271808 
L 97.146172 122.281575 
L 97.16139 122.307082 
L 97.366841 122.247065 
L 97.488589 122.233587 
L 97.69404 122.270967 
L 97.785351 122.21624 
L 97.823398 122.266791 
L 97.914709 122.274304 
L 97.929928 122.25665 
L 98.104941 122.228334 
L 98.11255 122.239467 
L 98.279955 122.201369 
L 98.378875 122.217349 
L 98.386485 122.239239 
L 98.531061 122.237666 
L 98.53867 122.228114 
L 98.690856 122.211444 
L 98.698465 122.238159 
L 98.843041 122.212581 
L 98.980008 122.134823 
L 99.002836 122.160166 
L 99.170241 122.200549 
L 99.28438 122.184884 
L 99.307208 122.21058 
L 99.535486 122.207539 
L 99.855076 122.093231 
L 99.984434 122.100403 
L 100.258368 122.075359 
L 100.364898 122.091481 
L 100.380116 122.078897 
L 101.019296 122.036174 
L 101.1867 122.069017 
L 101.323667 122.058732 
L 101.331276 122.071386 
L 101.582383 122.135721 
L 102.03133 122.114753 
L 102.449841 122.091896 
L 102.518324 122.068626 
L 102.56398 122.104747 
L 102.952053 122.086552 
L 103.149895 122.125414 
L 103.492312 122.128883 
L 103.667326 122.178962 
L 103.674935 122.169624 
L 104.078227 122.108163 
L 104.207585 122.110329 
L 104.215194 122.101871 
L 104.397817 122.061877 
L 107.669808 121.990141 
L 107.837212 121.953933 
L 107.844821 121.969726 
L 108.149192 121.937988 
L 108.324206 121.946115 
L 108.986213 121.993587 
L 109.13079 122.027113 
L 110.401539 122.092796 
L 110.568944 122.01493 
L 110.903752 121.965944 
L 111.03311 121.950886 
L 111.276607 121.978326 
L 111.436402 122.057074 
L 111.444011 122.047131 
L 111.733164 122.043574 
L 111.847303 122.050197 
L 111.854912 122.042061 
L 112.007098 122.039817 
L 112.166893 122.106983 
L 112.174502 122.09768 
L 112.532138 121.997613 
L 112.737589 121.992232 
L 112.943039 121.930254 
L 112.950649 121.943793 
L 113.118053 121.987004 
L 113.36155 121.9711 
L 113.46047 122.009995 
L 113.46808 122.029703 
L 113.57461 122.057833 
L 113.597438 122.039454 
L 114.639909 121.888597 
L 114.769267 121.994999 
L 114.898625 121.971859 
L 114.906234 121.981475 
L 115.043201 121.929115 
L 115.149731 121.885817 
L 115.180168 121.915834 
L 115.324744 121.971769 
L 115.553023 122.040097 
L 115.849785 121.930349 
L 115.986752 121.940336 
L 116.169375 121.982484 
L 116.207421 122.015797 
L 116.275905 121.968626 
L 117.097707 122.081355 
L 117.204237 122.074392 
L 117.211846 122.062797 
L 117.348813 122.032332 
L 117.500999 122.046823 
L 118.041258 121.953454 
L 118.048867 121.98031 
L 118.292364 122.053669 
L 118.474987 121.991765 
L 118.786967 121.948351 
L 118.855451 121.92609 
L 118.901107 121.962424 
L 119.144604 121.99924 
L 119.281571 122.022863 
L 119.441365 121.973922 
L 119.555505 121.931106 
L 120.232731 121.90752 
L 120.34687 121.929001 
L 120.354479 121.92126 
L 120.544711 121.917873 
L 120.628413 121.963892 
L 120.66646 121.939625 
L 120.902347 121.91345 
L 121.046924 121.896169 
L 121.161063 121.952947 
L 121.176282 121.941213 
L 121.366514 121.892335 
L 121.556746 121.822067 
L 121.648057 121.832888 
L 121.678494 121.812996 
L 121.82307 121.800587 
L 121.83068 121.862074 
L 121.998084 121.90387 
L 122.538343 121.878976 
L 122.67531 121.956465 
L 122.865542 122.015231 
L 122.873151 122.007842 
L 123.147085 121.882478 
L 123.154695 121.892888 
L 123.291662 121.880071 
L 123.51994 121.874287 
L 123.634079 121.867236 
L 123.649298 121.846981 
L 123.83953 121.863035 
L 123.968888 121.880397 
L 124.280868 121.800484 
L 124.433054 121.872596 
L 124.440663 121.866644 
L 124.745034 121.872451 
L 124.874392 121.924041 
L 125.057015 121.888445 
L 125.209201 121.930296 
L 125.308121 121.927871 
L 125.330949 121.902673 
L 125.353777 121.915697 
L 125.460307 121.894026 
L 125.658148 121.876799 
L 126.137533 121.902462 
L 126.259281 121.890523 
L 126.266891 121.90168 
L 126.434295 121.87158 
L 126.639745 121.864162 
L 126.79954 121.929511 
L 126.959335 121.886624 
L 127.027819 121.906221 
L 127.065865 121.879377 
L 127.218051 121.849865 
L 127.393064 121.859704 
L 127.606124 121.934607 
L 127.765919 121.871362 
L 127.910495 121.845718 
L 127.933323 121.88742 
L 128.237694 121.888218 
L 128.336615 121.835988 
L 128.382271 121.871065 
L 130.687883 121.787628 
L 130.840069 121.856749 
L 130.992254 121.842288 
L 130.999864 121.861037 
L 131.296625 121.805191 
L 131.821666 121.909 
L 132.042335 121.893242 
L 132.110819 121.911935 
L 132.156474 121.893184 
L 132.301051 121.873246 
L 132.430408 121.871152 
L 132.438018 121.885261 
L 132.559766 121.924692 
L 132.673905 121.922754 
L 132.8337 121.846641 
L 132.84131 121.859153 
L 134.302292 121.78278 
L 134.431649 121.773813 
L 134.439259 121.791338 
L 134.621881 121.810417 
L 136.448109 121.822455 
L 136.501374 121.877829 
L 136.562248 121.821699 
L 136.676387 121.837711 
L 136.798136 121.854958 
L 136.904666 121.854952 
L 136.912275 121.864111 
L 137.110116 121.848227 
L 137.269911 121.811723 
L 137.28513 121.833822 
L 137.444925 121.919032 
L 137.589501 121.881171 
L 137.59711 121.890085 
L 138.34282 121.76369 
L 138.479787 121.725833 
L 138.563489 121.831415 
L 138.624363 121.801477 
L 138.784158 121.754277 
L 138.921125 121.831336 
L 139.103748 121.779258 
L 139.233106 121.773674 
L 139.438556 121.774543 
L 139.537477 121.803062 
L 139.552696 121.79432 
L 139.659225 121.848986 
L 139.689663 121.819771 
L 139.879895 121.79398 
L 140.108173 121.856552 
L 140.306014 121.78251 
L 140.473419 121.854927 
L 140.617995 121.864648 
L 140.633213 121.845593 
L 140.861492 121.769636 
L 140.869101 121.808385 
L 140.960413 121.741562 
L 140.968022 121.746027 
L 141.378923 121.775519 
L 141.630029 121.710871 
L 146.142333 121.637857 
L 146.294519 121.628165 
L 146.515188 121.667199 
L 146.652155 121.697663 
L 146.796731 121.697919 
L 146.986963 121.69548 
L 147.169586 121.698457 
L 147.466348 121.683324 
L 147.641361 121.683115 
L 147.862031 121.624689 
L 148.0827 121.631704 
L 148.39468 121.642618 
L 148.661005 121.56749 
L 148.965376 121.579397 
L 149.102343 121.577748 
L 150.205689 121.675162 
L 150.335047 121.749124 
L 150.449186 121.697014 
L 150.669855 121.671486 
L 150.806822 121.658144 
L 152.047135 121.659175 
L 152.146056 121.696668 
L 152.176493 121.679911 
L 152.336288 121.692322 
L 152.442818 121.761972 
L 152.473255 121.749342 
L 152.73958 121.712173 
L 152.94503 121.686963 
L 153.409196 121.628471 
L 153.736396 121.635468 
L 153.926628 121.604423 
L 154.398403 121.653938 
L 154.512542 121.669713 
L 154.520152 121.663099 
L 154.74843 121.623692 
L 154.862569 121.63721 
L 154.946271 121.681031 
L 154.953881 121.695249 
L 155.204987 121.694167 
L 155.357172 121.678621 
L 155.631107 121.679242 
L 156.323551 121.747465 
L 156.4453 121.752984 
L 156.612704 121.780383 
L 156.802936 121.679613 
L 156.810545 121.68502 
L 156.947512 121.681537 
L 156.955121 121.673608 
L 157.198618 121.646159 
L 157.28993 121.666278 
L 157.312758 121.657563 
L 157.548645 121.613206 
L 157.731268 121.624671 
L 157.807361 121.628591 
L 157.837798 121.597532 
L 157.868235 121.640765 
L 158.012812 121.609205 
L 158.56068 121.620016 
L 158.636773 121.695103 
L 158.682428 121.672513 
L 158.77374 121.691512 
L 158.788958 121.700462 
L 161.802234 121.610133 
L 161.916373 121.612012 
L 161.931591 121.630682 
L 162.038121 121.642815 
L 162.05334 121.623147 
L 162.190307 121.696929 
L 162.312055 121.690408 
L 163.027328 121.712545 
L 163.088202 121.761653 
L 163.141467 121.711021 
L 163.255606 121.678009 
L 163.506713 121.632784 
L 163.803475 121.651068 
L 163.963269 121.684521 
L 164.183939 121.626896 
L 164.358952 121.603508 
L 164.48831 121.656501 
L 164.495919 121.651597 
L 164.678542 121.663151 
L 165.01335 121.592183 
L 165.173145 121.58713 
L 165.736232 121.624461 
L 165.873199 121.677047 
L 165.880808 121.670545 
L 166.664564 121.60841 
L 166.900452 121.585487 
L 167.105903 121.650034 
L 167.364618 121.590693 
L 167.501585 121.597621 
L 167.638552 121.646637 
L 167.737473 121.668145 
L 167.76791 121.643754 
L 167.988579 121.651992 
L 168.125546 121.63792 
L 168.346215 121.620075 
L 170.590953 121.479178 
L 171.009464 121.458565 
L 171.15404 121.471784 
L 171.313835 121.471759 
L 171.443193 121.499554 
L 171.641034 121.489996 
L 172.226949 121.476523 
L 172.401962 121.449963 
L 172.546539 121.491358 
L 172.561757 121.478013 
L 172.683506 121.486584 
L 172.866128 121.488998 
L 173.018314 121.516657 
L 173.155281 121.541409 
L 173.1705 121.523018 
L 173.27703 121.566793 
L 173.284639 121.593704 
L 173.512917 121.613673 
L 173.672712 121.581814 
L 175.506549 121.606722 
L 175.651125 121.656308 
L 175.864185 121.639391 
L 175.940278 121.635566 
L 175.970715 121.608438 
L 176.313133 121.545847 
L 176.510974 121.556725 
L 176.647941 121.580076 
L 176.746862 121.595805 
L 176.76969 121.575431 
L 176.899047 121.586815 
L 177.028405 121.613367 
L 177.172981 121.625432 
L 177.561055 121.584265 
L 177.682803 121.574517 
L 177.865426 121.534272 
L 178.010002 121.531131 
L 178.146969 121.50911 
L 178.154579 121.51787 
L 178.474169 121.528242 
L 178.67201 121.502251 
L 179.022037 121.521717 
L 179.060083 121.540737 
L 179.128567 121.493393 
L 179.866667 121.540411 
L 179.996025 121.546217 
L 180.102555 121.577 
L 180.110164 121.56779 
L 180.26235 121.541368 
L 180.269959 121.549268 
L 180.734125 121.670834 
L 180.985231 121.567702 
L 181.190682 121.532052 
L 181.42657 121.527662 
L 181.555927 121.554129 
L 183.732182 121.485943 
L 183.86154 121.469397 
L 183.998507 121.477539 
L 184.006116 121.50122 
L 184.59964 121.479161 
L 184.80509 121.492433 
L 184.964885 121.486367 
L 185.086634 121.494617 
L 185.094243 121.501628 
L 185.626893 121.529374 
L 185.725813 121.542094 
L 185.741032 121.526339 
L 185.916046 121.502891 
L 185.923655 121.518553 
L 186.136715 121.511908 
L 186.326947 121.479668 
L 186.334556 121.495417 
L 187.004173 121.432425 
L 187.673789 121.448407 
L 187.825975 121.464298 
L 188.130346 121.540711 
L 188.267313 121.543538 
L 188.381453 121.542757 
L 188.282532 121.557029 
L 188.389062 121.550051 
L 188.487983 121.580025 
L 188.51842 121.559827 
L 188.876056 121.613738 
L 189.035851 121.573703 
L 189.157599 121.594826 
L 191.280589 121.486367 
L 191.79802 121.503361 
L 192.505683 121.489684 
L 192.627431 121.481743 
L 192.764399 121.479883 
L 192.924193 121.500714 
L 193.106816 121.512023 
L 193.243783 121.52149 
L 193.639466 121.481147 
L 193.799261 121.458814 
L 193.974274 121.435689 
L 194.12646 121.412677 
L 194.255818 121.415978 
L 194.75803 121.407236 
L 194.910216 121.411191 
L 195.283071 121.469887 
L 195.442866 121.467264 
L 195.640707 121.514383 
L 195.81572 121.474533 
L 195.952687 121.495098 
L 195.960297 121.483809 
L 196.127701 121.481127 
L 196.77449 121.446365 
L 197.078861 121.353806 
L 197.626729 121.393343 
L 197.672385 121.425413 
L 197.740868 121.387911 
L 200.449773 121.390242 
L 200.571521 121.396641 
L 200.693269 121.396148 
L 201.043296 121.339821 
L 201.309621 121.432233 
L 201.492244 121.413154 
L 201.948801 121.389355 
L 202.116205 121.374965 
L 202.260781 121.374918 
L 202.686901 121.393705 
L 202.854305 121.38892 
L 203.029319 121.397862 
L 203.242379 121.378448 
L 203.417392 121.373854 
L 203.569578 121.444456 
L 203.790247 121.436976 
L 203.904386 121.466731 
L 204.041353 121.476275 
L 204.18593 121.456876 
L 204.452254 121.440162 
L 204.642486 121.39639 
L 204.756626 121.418964 
L 204.764235 121.411288 
L 204.977295 121.356172 
L 205.13709 121.317687 
L 205.327322 121.248577 
L 205.334931 121.262161 
L 205.654521 121.310957 
L 205.76866 121.298275 
L 205.936064 121.321446 
L 206.073031 121.284298 
L 207.845994 121.417636 
L 208.043835 121.379074 
L 208.196021 121.413699 
L 208.485173 121.388208 
L 208.675405 121.442766 
L 208.865637 121.467106 
L 210.022248 121.500453 
L 210.174434 121.542006 
L 210.182043 121.535295 
L 210.31901 121.499395 
L 210.577726 121.449276 
L 210.684256 121.440079 
L 210.691865 121.435651 
L 210.95058 121.40914 
L 210.988627 121.452463 
L 211.06472 121.413661 
L 211.863694 121.301265 
L 211.993052 121.325781 
L 212.000661 121.345062 
L 212.1148 121.405643 
L 212.320251 121.436157 
L 212.487655 121.386908 
L 212.693106 121.373769 
L 212.814854 121.371677 
L 213.081179 121.316771 
L 213.613829 121.392386 
L 214.511724 121.344369 
L 214.633473 121.356229 
L 215.021546 121.372319 
L 215.158513 121.395716 
L 215.424838 121.392647 
L 215.523758 121.387054 
L 215.531368 121.37768 
L 215.729209 121.363963 
L 215.995534 121.346948 
L 216.193375 121.319872 
L 216.391216 121.292582 
L 216.802118 121.29816 
L 216.87821 121.329598 
L 216.916257 121.306293 
L 217.228237 121.298052 
L 217.403251 121.299826 
L 217.601092 121.316425 
L 218.270709 121.304554 
L 218.392457 121.311885 
L 218.719657 121.257917 
L 219.077293 121.28717 
L 219.130558 121.362785 
L 219.183823 121.332415 
L 219.32079 121.348042 
L 220.013234 121.31718 
L 220.05889 121.357124 
L 220.127374 121.330639 
L 220.332824 121.30467 
L 220.48501 121.262048 
L 221.200282 121.226319 
L 221.580746 121.24293 
L 221.717713 121.3015 
L 221.725323 121.293378 
L 222.311237 121.300032 
L 222.402549 121.291536 
L 222.425376 121.271497 
L 222.646046 121.239348 
L 222.859105 121.264552 
L 223.049337 121.263451 
L 223.437411 121.275777 
L 223.749391 121.259136 
L 223.863531 121.265985 
L 224.129855 121.264946 
L 224.251604 121.300505 
L 224.50271 121.267565 
L 225.058188 121.315618 
L 225.202764 121.321255 
L 225.537572 121.330309 
L 225.590837 121.372629 
L 225.651712 121.343001 
L 226.055004 121.297959 
L 226.252845 121.299762 
L 226.313719 121.285191 
L 226.359375 121.340269 
L 226.671355 121.324827 
L 226.770276 121.350666 
L 226.793104 121.34195 
L 226.998554 121.347582 
L 227.531204 121.297011 
L 228.025807 121.386067 
L 228.147556 121.376985 
L 228.299741 121.368199 
L 228.482364 121.314046 
L 228.748689 121.334151 
L 228.900875 121.344889 
L 228.908484 121.336662 
L 229.083497 121.290281 
L 229.091107 121.30025 
L 229.281339 121.340998 
L 229.410697 121.359137 
L 229.58571 121.300452 
L 229.593319 121.335243 
L 229.791161 121.331812 
L 229.958565 121.274808 
L 229.966174 121.286348 
L 230.179234 121.292122 
L 230.33142 121.276676 
L 230.445559 121.281244 
L 230.635791 121.250473 
L 230.970599 121.24131 
L 231.115176 121.302017 
L 231.373891 121.226399 
L 231.548905 121.210625 
L 231.769574 121.224421 
L 231.898931 121.257079 
L 232.157647 121.238465 
L 232.279396 121.258545 
L 232.43919 121.248585 
L 232.614204 121.209958 
L 232.735952 121.257264 
L 233.329476 121.230154 
L 233.542536 121.292925 
L 233.671894 121.289187 
L 233.679503 121.297824 
L 233.976265 121.270092 
L 234.432822 121.194198 
L 234.623054 121.187219 
L 234.706756 121.206426 
L 234.729584 121.236092 
L 234.87416 121.270633 
L 234.995909 121.306788 
L 235.254624 121.268058 
L 235.368764 121.257696 
L 235.574214 121.230998 
L 236.685169 121.260641 
L 236.898229 121.232261 
L 237.453707 121.230949 
L 237.583064 121.238074 
L 237.818952 121.241932 
L 238.2679 121.23492 
L 238.442913 121.264338 
L 242.551925 121.201873 
L 242.719329 121.189659 
L 243.693317 121.277948 
L 243.731364 121.342468 
L 243.807456 121.305515 
L 244.066172 121.244238 
L 244.264013 121.273774 
L 244.545557 121.267775 
L 245.032551 121.240087 
L 245.230392 121.229669 
L 245.367359 121.261485 
L 245.374968 121.255858 
L 245.542373 121.232781 
L 245.588028 121.27058 
L 245.656512 121.233259 
L 245.922837 121.228435 
L 246.082632 121.24555 
L 246.348956 121.200894 
L 246.478314 121.216631 
L 246.62289 121.214292 
L 246.790295 121.227319 
L 250.275345 121.140828 
L 250.54928 121.120764 
L 250.929744 121.171933 
L 251.256943 121.157865 
L 251.477612 121.221321 
L 251.7135 121.220655 
L 251.858076 121.207709 
L 254.650682 121.198747 
L 254.802868 121.206173 
L 255.09202 121.180575 
L 255.190941 121.190103 
L 255.213769 121.174966 
L 255.571405 121.136836 
L 256.104055 121.109953 
L 256.37038 121.069534 
L 256.507347 121.068245 
L 256.697579 121.05983 
L 256.781281 121.135869 
L 256.819327 121.122237 
L 257.017169 121.084067 
L 257.199791 121.133416 
L 257.42046 121.112142 
L 257.542209 121.132381 
L 257.770487 121.1321 
L 258.447713 121.225839 
L 258.881442 121.247915 
L 259.094502 121.226161 
L 259.201032 121.193358 
L 259.33039 121.221261 
L 260.053272 121.164708 
L 260.190239 121.192429 
L 260.433736 121.169548 
L 260.890293 121.146941 
L 261.072915 121.128785 
L 262.336056 121.27448 
L 262.381712 121.301149 
L 262.450195 121.276779 
L 263.264388 121.23151 
L 263.378528 121.226689 
L 263.720945 121.164159 
L 267.114685 121.123734 
L 267.304917 121.082103 
L 267.411447 121.095395 
L 267.419056 121.088964 
L 267.715818 121.108294 
L 267.860394 121.135522 
L 268.126719 121.152281 
L 268.240858 121.154678 
L 268.43109 121.133467 
L 270.204053 121.126982 
L 270.371457 121.137718 
L 270.881279 121.199243 
L 270.957372 121.238022 
L 271.003027 121.218077 
L 271.254134 121.185164 
L 271.375882 121.220213 
L 271.984625 121.137167 
L 272.250949 121.130387 
L 272.4564 121.140093 
L 272.639023 121.164076 
L 272.912957 121.113147 
L 273.148845 121.170834 
L 273.293421 121.195149 
L 273.491262 121.155099 
L 273.681494 121.199582 
L 273.864117 121.200215 
L 274.031521 121.209375 
L 274.982681 121.135837 
L 275.157695 121.128167 
L 275.347927 121.115504 
L 275.62947 121.066348 
L 275.804484 121.065588 
L 275.94906 121.036661 
L 276.192557 121.06641 
L 276.595849 121.014417 
L 276.732816 121.016001 
L 277.067624 121.052026 
L 277.881817 121.039253 
L 278.657964 121.072196 
L 278.81015 121.091507 
L 279.007991 121.126419 
L 279.266707 121.0918 
L 279.829793 121.061177 
L 279.951542 121.111854 
L 280.134165 121.079262 
L 281.161418 121.0534 
L 281.313603 121.061605 
L 281.503835 121.050219 
L 281.678849 121.109555 
L 286.708584 121.169472 
L 286.815113 121.127115 
L 287.302107 121.067244 
L 287.789101 121.062109 
L 287.91085 121.112309 
L 288.207612 121.034097 
L 288.321751 121.041295 
L 288.32936 121.035729 
L 288.534811 121.00036 
L 288.679387 121.046036 
L 288.839182 121.024083 
L 288.976149 121.048608 
L 289.097898 121.058062 
L 289.318567 121.00609 
L 291.654616 121.117108 
L 291.844848 121.101206 
L 291.852458 121.117903 
L 292.027471 121.100061 
L 292.35467 121.121656 
L 292.499246 121.095286 
L 292.864492 121.107733 
L 292.98624 121.111933 
L 293.267784 121.058141 
L 293.419969 121.054979 
L 293.534109 121.088445 
L 293.648248 121.117786 
L 293.830871 121.12653 
L 293.983056 121.099175 
L 298.213817 121.039187 
L 298.525797 121.017509 
L 298.700811 121.015361 
L 298.891043 121.035015 
L 299.050838 121.021199 
L 299.286725 121.017629 
L 299.537832 121.062432 
L 300.009607 121.089749 
L 300.207448 121.099629 
L 300.625959 121.050305 
L 300.724879 121.054861 
L 300.740098 121.044867 
L 300.922721 121.030407 
L 301.03686 121.082537 
L 301.044469 121.076795 
L 301.204264 121.068372 
L 301.927146 121.096828 
L 302.071722 121.118343 
L 302.223908 121.112523 
L 302.231517 121.124422 
L 302.452186 121.133655 
L 302.642418 121.090836 
L 304.149056 121.063506 
L 304.506692 121.0541 
L 304.788236 121.01956 
L 306.911225 120.971978 
L 307.093848 121.025312 
L 307.428656 121.036082 
L 307.512358 121.052486 
L 307.542795 121.040655 
L 307.679762 121.066683 
L 307.786292 121.058138 
L 307.793902 121.052565 
L 308.737452 120.978017 
L 309.110307 121.034113 
L 309.285321 121.061118 
L 310.928925 121.077848 
L 311.240906 121.13195 
L 311.590933 121.029608 
L 312.085536 121.049598 
L 312.245331 121.061159 
L 312.488828 121.026742 
L 312.846464 121.01887 
L 313.120398 120.970014 
L 314.452023 120.982598 
L 314.558552 120.976744 
L 314.566162 120.972426 
L 314.764003 120.973085 
L 314.931407 120.998352 
L 315.106421 121.012487 
L 315.441229 120.980211 
L 315.570587 120.983454 
L 315.730382 120.974533 
L 315.85974 120.982561 
L 315.867349 120.977041 
L 316.027144 120.986942 
L 316.186939 121.025102 
L 316.643496 120.997703 
L 317.214192 121.003006 
L 317.320722 121.025 
L 317.33594 121.016523 
L 317.594656 121.00428 
L 317.899027 121.010186 
L 318.096868 121.042474 
L 318.211007 121.032875 
L 318.401239 121.047345 
L 318.515379 121.031674 
L 318.880624 120.947432 
L 319.009982 120.947166 
L 319.253479 120.995519 
L 319.504585 120.950973 
L 319.649162 120.979314 
L 319.816566 120.968082 
L 319.968751 121.007219 
L 320.151374 121.009086 
L 320.676415 121.021345 
L 320.813382 121.060853 
L 320.8286 121.047408 
L 321.581919 121.053143 
L 321.810197 121.004694 
L 321.99282 121.034156 
L 323.354881 120.980798 
L 324.131028 120.918842 
L 324.473446 120.898401 
L 324.762599 120.935897 
L 325.074579 120.978713 
L 325.325685 120.958342 
L 325.447434 121.001138 
L 325.69854 120.971764 
L 325.980083 120.986296 
L 326.132269 121.003376 
L 326.276845 121.015235 
L 326.497515 120.990977 
L 327.418238 120.961727 
L 327.547595 120.948854 
L 327.798702 120.949116 
L 328.430272 120.992943 
L 328.612895 121.032429 
L 328.719425 121.018031 
L 328.727034 121.014059 
L 328.917266 121.014687 
L 329.122717 120.996566 
L 329.662976 120.927201 
L 329.792333 120.961746 
L 329.997784 120.949915 
L 330.705447 120.957818 
L 330.895679 120.968524 
L 331.131567 120.919395 
L 332.89692 120.962122 
L 333.406742 120.903198 
L 333.840471 120.956588 
L 334.007875 120.990446 
L 336.693951 120.98825 
L 336.861356 121.022882 
L 338.002748 120.920134 
L 338.170152 120.938301 
L 338.444086 120.988993 
L 338.733239 120.983555 
L 338.893034 120.988146 
L 339.159358 120.97395 
L 339.273498 120.975281 
L 339.281107 120.970623 
L 339.547432 120.92815 
L 339.714836 120.947052 
L 340.445327 120.978063 
L 340.574685 121.00852 
L 340.719261 121.016453 
L 340.894275 120.985457 
L 341.137772 120.931435 
L 341.381269 120.943598 
L 341.518236 120.949328 
L 341.708468 120.943206 
L 342.598753 120.934498 
L 342.788986 120.924194 
L 344.554339 120.89558 
L 344.736961 120.892493 
L 345.094598 120.88667 
L 345.216346 120.880494 
L 345.520717 120.922511 
L 345.756605 120.935423 
L 345.901182 120.956337 
L 347.065402 120.917856 
L 347.194759 120.91059 
L 347.407819 120.900451 
L 347.544786 120.903613 
L 347.833939 120.950334 
L 347.955687 120.927524 
L 348.199184 120.952535 
L 348.427463 120.948997 
L 348.549211 120.968206 
L 348.686178 120.94858 
L 349.043815 120.887249 
L 349.188391 120.869494 
L 350.946135 120.860383 
L 351.151586 120.865315 
L 351.691844 120.845305 
L 352.102746 120.840922 
L 353.822443 120.911122 
L 353.822443 120.911122 
" style="fill:none;stroke:#1f77b4;stroke-linecap:square;stroke-width:1.5;"/>
   </g>
   <g id="line2d_16">
    <path clip-path="url(#p1d4eed9ace)" d="M 34.240625 32.201761 
L 369.040625 32.201761 
" style="fill:none;stroke:#ff0000;stroke-dasharray:5.55,2.4;stroke-dashoffset:0;stroke-width:1.5;"/>
   </g>
   <g id="patch_3">
    <path d="M 34.240625 239.758125 
L 34.240625 22.318125 
" style="fill:none;stroke:#000000;stroke-linecap:square;stroke-linejoin:miter;stroke-width:0.8;"/>
   </g>
   <g id="patch_4">
    <path d="M 369.040625 239.758125 
L 369.040625 22.318125 
" style="fill:none;stroke:#000000;stroke-linecap:square;stroke-linejoin:miter;stroke-width:0.8;"/>
   </g>
   <g id="patch_5">
    <path d="M 34.240625 239.758125 
L 369.040625 239.758125 
" style="fill:none;stroke:#000000;stroke-linecap:square;stroke-linejoin:miter;stroke-width:0.8;"/>
   </g>
   <g id="patch_6">
    <path d="M 34.240625 22.318125 
L 369.040625 22.318125 
" style="fill:none;stroke:#000000;stroke-linecap:square;stroke-linejoin:miter;stroke-width:0.8;"/>
   </g>
   <g id="text_17">
    <!-- Gaussian_d10_clip1e-05_rho0.9 -->
    <defs>
     <path d="M 59.515625 10.40625 
L 59.515625 29.984375 
L 43.40625 29.984375 
L 43.40625 38.09375 
L 69.28125 38.09375 
L 69.28125 6.78125 
Q 63.578125 2.734375 56.6875 0.65625 
Q 49.8125 -1.421875 42 -1.421875 
Q 24.90625 -1.421875 15.25 8.5625 
Q 5.609375 18.5625 5.609375 36.375 
Q 5.609375 54.25 15.25 64.234375 
Q 24.90625 74.21875 42 74.21875 
Q 49.125 74.21875 55.546875 72.453125 
Q 61.96875 70.703125 67.390625 67.28125 
L 67.390625 56.78125 
Q 61.921875 61.421875 55.765625 63.765625 
Q 49.609375 66.109375 42.828125 66.109375 
Q 29.4375 66.109375 22.71875 58.640625 
Q 16.015625 51.171875 16.015625 36.375 
Q 16.015625 21.625 22.71875 14.15625 
Q 29.4375 6.6875 42.828125 6.6875 
Q 48.046875 6.6875 52.140625 7.59375 
Q 56.25 8.5 59.515625 10.40625 
z
" id="DejaVuSans-71"/>
     <path d="M 50.984375 -16.609375 
L 50.984375 -23.578125 
L -0.984375 -23.578125 
L -0.984375 -16.609375 
z
" id="DejaVuSans-95"/>
     <path d="M 45.40625 46.390625 
L 45.40625 75.984375 
L 54.390625 75.984375 
L 54.390625 0 
L 45.40625 0 
L 45.40625 8.203125 
Q 42.578125 3.328125 38.25 0.953125 
Q 33.9375 -1.421875 27.875 -1.421875 
Q 17.96875 -1.421875 11.734375 6.484375 
Q 5.515625 14.40625 5.515625 27.296875 
Q 5.515625 40.1875 11.734375 48.09375 
Q 17.96875 56 27.875 56 
Q 33.9375 56 38.25 53.625 
Q 42.578125 51.265625 45.40625 46.390625 
z
M 14.796875 27.296875 
Q 14.796875 17.390625 18.875 11.75 
Q 22.953125 6.109375 30.078125 6.109375 
Q 37.203125 6.109375 41.296875 11.75 
Q 45.40625 17.390625 45.40625 27.296875 
Q 45.40625 37.203125 41.296875 42.84375 
Q 37.203125 48.484375 30.078125 48.484375 
Q 22.953125 48.484375 18.875 42.84375 
Q 14.796875 37.203125 14.796875 27.296875 
z
" id="DejaVuSans-100"/>
     <path d="M 48.78125 52.59375 
L 48.78125 44.1875 
Q 44.96875 46.296875 41.140625 47.34375 
Q 37.3125 48.390625 33.40625 48.390625 
Q 24.65625 48.390625 19.8125 42.84375 
Q 14.984375 37.3125 14.984375 27.296875 
Q 14.984375 17.28125 19.8125 11.734375 
Q 24.65625 6.203125 33.40625 6.203125 
Q 37.3125 6.203125 41.140625 7.25 
Q 44.96875 8.296875 48.78125 10.40625 
L 48.78125 2.09375 
Q 45.015625 0.34375 40.984375 -0.53125 
Q 36.96875 -1.421875 32.421875 -1.421875 
Q 20.0625 -1.421875 12.78125 6.34375 
Q 5.515625 14.109375 5.515625 27.296875 
Q 5.515625 40.671875 12.859375 48.328125 
Q 20.21875 56 33.015625 56 
Q 37.15625 56 41.109375 55.140625 
Q 45.0625 54.296875 48.78125 52.59375 
z
" id="DejaVuSans-99"/>
     <path d="M 9.421875 75.984375 
L 18.40625 75.984375 
L 18.40625 0 
L 9.421875 0 
z
" id="DejaVuSans-108"/>
     <path d="M 18.109375 8.203125 
L 18.109375 -20.796875 
L 9.078125 -20.796875 
L 9.078125 54.6875 
L 18.109375 54.6875 
L 18.109375 46.390625 
Q 20.953125 51.265625 25.265625 53.625 
Q 29.59375 56 35.59375 56 
Q 45.5625 56 51.78125 48.09375 
Q 58.015625 40.1875 58.015625 27.296875 
Q 58.015625 14.40625 51.78125 6.484375 
Q 45.5625 -1.421875 35.59375 -1.421875 
Q 29.59375 -1.421875 25.265625 0.953125 
Q 20.953125 3.328125 18.109375 8.203125 
z
M 48.6875 27.296875 
Q 48.6875 37.203125 44.609375 42.84375 
Q 40.53125 48.484375 33.40625 48.484375 
Q 26.265625 48.484375 22.1875 42.84375 
Q 18.109375 37.203125 18.109375 27.296875 
Q 18.109375 17.390625 22.1875 11.75 
Q 26.265625 6.109375 33.40625 6.109375 
Q 40.53125 6.109375 44.609375 11.75 
Q 48.6875 17.390625 48.6875 27.296875 
z
" id="DejaVuSans-112"/>
     <path d="M 4.890625 31.390625 
L 31.203125 31.390625 
L 31.203125 23.390625 
L 4.890625 23.390625 
z
" id="DejaVuSans-45"/>
     <path d="M 54.890625 33.015625 
L 54.890625 0 
L 45.90625 0 
L 45.90625 32.71875 
Q 45.90625 40.484375 42.875 44.328125 
Q 39.84375 48.1875 33.796875 48.1875 
Q 26.515625 48.1875 22.3125 43.546875 
Q 18.109375 38.921875 18.109375 30.90625 
L 18.109375 0 
L 9.078125 0 
L 9.078125 75.984375 
L 18.109375 75.984375 
L 18.109375 46.1875 
Q 21.34375 51.125 25.703125 53.5625 
Q 30.078125 56 35.796875 56 
Q 45.21875 56 50.046875 50.171875 
Q 54.890625 44.34375 54.890625 33.015625 
z
" id="DejaVuSans-104"/>
     <path d="M 10.6875 12.40625 
L 21 12.40625 
L 21 0 
L 10.6875 0 
z
" id="DejaVuSans-46"/>
     <path d="M 10.984375 1.515625 
L 10.984375 10.5 
Q 14.703125 8.734375 18.5 7.8125 
Q 22.3125 6.890625 25.984375 6.890625 
Q 35.75 6.890625 40.890625 13.453125 
Q 46.046875 20.015625 46.78125 33.40625 
Q 43.953125 29.203125 39.59375 26.953125 
Q 35.25 24.703125 29.984375 24.703125 
Q 19.046875 24.703125 12.671875 31.3125 
Q 6.296875 37.9375 6.296875 49.421875 
Q 6.296875 60.640625 12.9375 67.421875 
Q 19.578125 74.21875 30.609375 74.21875 
Q 43.265625 74.21875 49.921875 64.515625 
Q 56.59375 54.828125 56.59375 36.375 
Q 56.59375 19.140625 48.40625 8.859375 
Q 40.234375 -1.421875 26.421875 -1.421875 
Q 22.703125 -1.421875 18.890625 -0.6875 
Q 15.09375 0.046875 10.984375 1.515625 
z
M 30.609375 32.421875 
Q 37.25 32.421875 41.125 36.953125 
Q 45.015625 41.5 45.015625 49.421875 
Q 45.015625 57.28125 41.125 61.84375 
Q 37.25 66.40625 30.609375 66.40625 
Q 23.96875 66.40625 20.09375 61.84375 
Q 16.21875 57.28125 16.21875 49.421875 
Q 16.21875 41.5 20.09375 36.953125 
Q 23.96875 32.421875 30.609375 32.421875 
z
" id="DejaVuSans-57"/>
    </defs>
    <g transform="translate(106.438438 16.318125)scale(0.12 -0.12)">
     <use xlink:href="#DejaVuSans-71"/>
     <use x="77.490234" xlink:href="#DejaVuSans-97"/>
     <use x="138.769531" xlink:href="#DejaVuSans-117"/>
     <use x="202.148438" xlink:href="#DejaVuSans-115"/>
     <use x="254.248047" xlink:href="#DejaVuSans-115"/>
     <use x="306.347656" xlink:href="#DejaVuSans-105"/>
     <use x="334.130859" xlink:href="#DejaVuSans-97"/>
     <use x="395.410156" xlink:href="#DejaVuSans-110"/>
     <use x="458.789062" xlink:href="#DejaVuSans-95"/>
     <use x="508.789062" xlink:href="#DejaVuSans-100"/>
     <use x="572.265625" xlink:href="#DejaVuSans-49"/>
     <use x="635.888672" xlink:href="#DejaVuSans-48"/>
     <use x="699.511719" xlink:href="#DejaVuSans-95"/>
     <use x="749.511719" xlink:href="#DejaVuSans-99"/>
     <use x="804.492188" xlink:href="#DejaVuSans-108"/>
     <use x="832.275391" xlink:href="#DejaVuSans-105"/>
     <use x="860.058594" xlink:href="#DejaVuSans-112"/>
     <use x="923.535156" xlink:href="#DejaVuSans-49"/>
     <use x="987.158203" xlink:href="#DejaVuSans-101"/>
     <use x="1048.681641" xlink:href="#DejaVuSans-45"/>
     <use x="1084.765625" xlink:href="#DejaVuSans-48"/>
     <use x="1148.388672" xlink:href="#DejaVuSans-53"/>
     <use x="1212.011719" xlink:href="#DejaVuSans-95"/>
     <use x="1262.011719" xlink:href="#DejaVuSans-114"/>
     <use x="1303.109375" xlink:href="#DejaVuSans-104"/>
     <use x="1366.488281" xlink:href="#DejaVuSans-111"/>
     <use x="1427.669922" xlink:href="#DejaVuSans-48"/>
     <use x="1491.292969" xlink:href="#DejaVuSans-46"/>
     <use x="1523.080078" xlink:href="#DejaVuSans-57"/>
    </g>
   </g>
   <g id="legend_1">
    <g id="patch_7">
     <path d="M 266.6375 234.758125 
L 362.040625 234.758125 
Q 364.040625 234.758125 364.040625 232.758125 
L 364.040625 204.401875 
Q 364.040625 202.401875 362.040625 202.401875 
L 266.6375 202.401875 
Q 264.6375 202.401875 264.6375 204.401875 
L 264.6375 232.758125 
Q 264.6375 234.758125 266.6375 234.758125 
z
" style="fill:#ffffff;opacity:0.8;stroke:#cccccc;stroke-linejoin:miter;"/>
    </g>
    <g id="line2d_17">
     <path d="M 268.6375 210.500312 
L 288.6375 210.500312 
" style="fill:none;stroke:#1f77b4;stroke-linecap:square;stroke-width:1.5;"/>
    </g>
    <g id="line2d_18"/>
    <g id="text_18">
     <!-- MI estimate -->
     <g transform="translate(296.6375 214.000312)scale(0.1 -0.1)">
      <use xlink:href="#DejaVuSans-77"/>
      <use x="86.279297" xlink:href="#DejaVuSans-73"/>
      <use x="115.771484" xlink:href="#DejaVuSans-32"/>
      <use x="147.558594" xlink:href="#DejaVuSans-101"/>
      <use x="209.082031" xlink:href="#DejaVuSans-115"/>
      <use x="261.181641" xlink:href="#DejaVuSans-116"/>
      <use x="300.390625" xlink:href="#DejaVuSans-105"/>
      <use x="328.173828" xlink:href="#DejaVuSans-109"/>
      <use x="425.585938" xlink:href="#DejaVuSans-97"/>
      <use x="486.865234" xlink:href="#DejaVuSans-116"/>
      <use x="526.074219" xlink:href="#DejaVuSans-101"/>
     </g>
    </g>
    <g id="line2d_19">
     <path d="M 268.6375 225.178437 
L 288.6375 225.178437 
" style="fill:none;stroke:#ff0000;stroke-dasharray:5.55,2.4;stroke-dashoffset:0;stroke-width:1.5;"/>
    </g>
    <g id="line2d_20"/>
    <g id="text_19">
     <!-- ground truth -->
     <defs>
      <path d="M 45.40625 27.984375 
Q 45.40625 37.75 41.375 43.109375 
Q 37.359375 48.484375 30.078125 48.484375 
Q 22.859375 48.484375 18.828125 43.109375 
Q 14.796875 37.75 14.796875 27.984375 
Q 14.796875 18.265625 18.828125 12.890625 
Q 22.859375 7.515625 30.078125 7.515625 
Q 37.359375 7.515625 41.375 12.890625 
Q 45.40625 18.265625 45.40625 27.984375 
z
M 54.390625 6.78125 
Q 54.390625 -7.171875 48.1875 -13.984375 
Q 42 -20.796875 29.203125 -20.796875 
Q 24.46875 -20.796875 20.265625 -20.09375 
Q 16.0625 -19.390625 12.109375 -17.921875 
L 12.109375 -9.1875 
Q 16.0625 -11.328125 19.921875 -12.34375 
Q 23.78125 -13.375 27.78125 -13.375 
Q 36.625 -13.375 41.015625 -8.765625 
Q 45.40625 -4.15625 45.40625 5.171875 
L 45.40625 9.625 
Q 42.625 4.78125 38.28125 2.390625 
Q 33.9375 0 27.875 0 
Q 17.828125 0 11.671875 7.65625 
Q 5.515625 15.328125 5.515625 27.984375 
Q 5.515625 40.671875 11.671875 48.328125 
Q 17.828125 56 27.875 56 
Q 33.9375 56 38.28125 53.609375 
Q 42.625 51.21875 45.40625 46.390625 
L 45.40625 54.6875 
L 54.390625 54.6875 
z
" id="DejaVuSans-103"/>
     </defs>
     <g transform="translate(296.6375 228.678437)scale(0.1 -0.1)">
      <use xlink:href="#DejaVuSans-103"/>
      <use x="63.476562" xlink:href="#DejaVuSans-114"/>
      <use x="104.558594" xlink:href="#DejaVuSans-111"/>
      <use x="165.740234" xlink:href="#DejaVuSans-117"/>
      <use x="229.119141" xlink:href="#DejaVuSans-110"/>
      <use x="292.498047" xlink:href="#DejaVuSans-100"/>
      <use x="355.974609" xlink:href="#DejaVuSans-32"/>
      <use x="387.761719" xlink:href="#DejaVuSans-116"/>
      <use x="426.970703" xlink:href="#DejaVuSans-114"/>
      <use x="468.083984" xlink:href="#DejaVuSans-117"/>
      <use x="531.462891" xlink:href="#DejaVuSans-116"/>
      <use x="570.671875" xlink:href="#DejaVuSans-104"/>
     </g>
    </g>
   </g>
  </g>
 </g>
 <defs>
  <clipPath id="p1d4eed9ace">
   <rect height="217.44" width="334.8" x="34.240625" y="22.318125"/>
  </clipPath>
 </defs>
</svg>
